<!-- <svg width='2000' height='437' fill='none' xmlns='http://www.w3.org/2000/svg'><g clip-path='url(#a)'><path fill-rule='evenodd' clip-rule='evenodd' d='M2000 378.968s-285.12-85.434-663.89-20.468c-378.763 64.966-665.356 90.522-922.915 65C155.635 397.978-1.389 294.667-1.389 294.667V0H2000v378.968Z' fill='#e6b17e'/><mask id='b' style='mask-type:alpha' maskUnits='userSpaceOnUse' x='-2' y='0' width='2003' height='437'><path fill-rule='evenodd' clip-rule='evenodd' d='M2000 378.968s-299.99-64.966-678.74 0C942.492 443.934 667.282 447.522 409.722 422 152.163 396.478-1.388 294.667-1.388 294.667V0H2000v378.968Z' fill='#fff'/></mask></g><g clip-path='url(#c)'><path fill-rule='evenodd' clip-rule='evenodd' d='M2000 363.968s-285.12-85.434-663.89-20.468c-378.763 64.966-665.356 90.522-922.915 65C155.635 382.978-1.389 279.667-1.389 279.667V-15H2000v378.968Z' fill='#c96e30'/><mask id='d' style='mask-type:alpha' maskUnits='userSpaceOnUse' x='-2' y='-15' width='2003' height='437'><path fill-rule='evenodd' clip-rule='evenodd' d='M2000 363.968s-299.99-64.966-678.74 0C942.492 428.934 667.282 432.522 409.722 407 152.163 381.478-1.388 279.667-1.388 279.667V-15H2000v378.968Z' fill='#fff'/></mask></g><defs><clipPath id='a'><path fill='#fff' d='M0 0h2000v437H0z'/></clipPath><clipPath id='c'><path fill='#fff' transform='translate(0 -15)' d='M0 0h2000v437H0z'/></clipPath></defs></svg> -->


<svg width="100%" height="100%" id="svg" viewBox="0 0 1440 590" xmlns="http://www.w3.org/2000/svg" class="transition duration-300 ease-in-out delay-150"><defs><linearGradient id="gradient" x1="0%" y1="50%" x2="100%" y2="50%"><stop offset="5%" stop-color="#ca6d30"></stop><stop offset="95%" stop-color="#e4a366"></stop></linearGradient></defs><path d="M 0,600 C 0,600 0,200 0,200 C 75.95809000343525,230.09069048436965 151.9161800068705,260.1813809687393 227,265 C 302.0838199931295,269.8186190312607 376.29336997595334,249.36516660941257 429,231 C 481.70663002404666,212.63483339058743 512.9103400893164,196.35795259361043 584,201 C 655.0896599106836,205.64204740638957 766.0652696667813,231.2030230161457 844,241 C 921.9347303332187,250.7969769838543 966.828581243559,244.82995534180694 1025,223 C 1083.171418756441,201.17004465819306 1154.6204053589831,163.4771556166266 1226,157 C 1297.3795946410169,150.5228443833734 1368.6897973205084,175.2614221916867 1440,200 C 1440,200 1440,600 1440,600 Z" stroke="none" stroke-width="0" fill="url(#gradient)" fill-opacity="0.53" class="transition-all duration-300 ease-in-out delay-150 path-0" transform="rotate(-180 720 300)"></path><defs><linearGradient id="gradient" x1="0%" y1="50%" x2="100%" y2="50%"><stop offset="5%" stop-color="#ca6d30"></stop><stop offset="95%" stop-color="#e6b17f"></stop></linearGradient></defs><path d="M 0,600 C 0,600 0,400 0,400 C 69.33012710408795,372.24596358639644 138.6602542081759,344.4919271727928 207,364 C 275.3397457918241,383.5080728272072 342.6891102713843,450.2782548952251 423,467 C 503.3108897286157,483.7217451047749 596.5833047062865,450.3950532463071 655,426 C 713.4166952937135,401.6049467536929 736.9776709034697,386.1415321195465 793,401 C 849.0223290965303,415.8584678804535 937.5060116798352,461.0388182755067 1010,447 C 1082.4939883201648,432.9611817244933 1138.99828237719,359.7031947784266 1208,342 C 1277.00171762281,324.2968052215734 1358.5008588114051,362.14840261078666 1440,400 C 1440,400 1440,600 1440,600 Z" stroke="none" stroke-width="0" fill="url(#gradient)" fill-opacity="1" class="transition-all duration-300 ease-in-out delay-150 path-1" transform="rotate(-180 720 300)"></path></svg>